<?xml version="1.0"?>
<svg width="60" height="52" xmlns="http://www.w3.org/2000/svg" xmlns:svg="http://www.w3.org/2000/svg">
 <g class="layer">
  <title>Layer 1</title>
  <path d="m32.36,17.28l0,-2.24l-2.31,0l0,2.23l-2.09,0l0,-2.23l-2.31,0l0,2.23l-0.91,0c-0.31,0 -0.6,0.12 -0.82,0.34c-0.21,0.22 -0.33,0.51 -0.33,0.82l0,14.17c0,0.31 0.12,0.6 0.33,0.82c0.22,0.22 0.51,0.34 0.82,0.34l0.91,0l0,2.67l2.31,0l0,-2.67l2.09,0l0,2.67l2.31,0l0,-2.69c1.08,-0.05 2.09,-0.52 2.84,-1.3c0.74,-0.77 1.15,-1.81 1.15,-2.89l0,-0.99c0.01,-0.58 -0.11,-1.15 -0.34,-1.68c-0.22,-0.53 -0.55,-1 -0.97,-1.4c0.42,-0.39 0.75,-0.87 0.98,-1.4c0.22,-0.53 0.34,-1.1 0.33,-1.68l0,-0.92c0,-1.08 -0.41,-2.12 -1.16,-2.9c-0.74,-0.78 -1.75,-1.24 -2.83,-1.3zm1.68,11.28l0,0.99c0,0.51 -0.2,0.99 -0.55,1.34c-0.36,0.36 -0.84,0.56 -1.34,0.56l-6.25,0l0,-4.78l6.25,0c0.5,0 0.98,0.2 1.34,0.56c0.35,0.35 0.55,0.83 0.55,1.33zm-8.14,-4.2l0,-4.77l6.25,0c0.5,0 0.98,0.2 1.34,0.55c0.35,0.36 0.55,0.84 0.55,1.34l0,0.99c0,0.5 -0.2,0.98 -0.55,1.34c-0.36,0.35 -0.84,0.55 -1.34,0.55l-6.25,0zm17.57,-23.94l-3.08,3.71c-3.25,-1.56 -6.8,-2.37 -10.4,-2.37c-3.6,0 -7.15,0.81 -10.39,2.37l-3.08,-3.71c-0.11,-0.13 -0.24,-0.24 -0.4,-0.31c-0.15,-0.07 -0.32,-0.11 -0.49,-0.11l-15.63,0l0,2.31l15.04,0l2.45,2.95c-4.56,2.79 -8.06,7.01 -9.96,12.01l-0.6,0l-1.46,-4.56c-0.07,-0.23 -0.22,-0.43 -0.41,-0.58c-0.2,-0.15 -0.44,-0.22 -0.69,-0.23l-4.37,0l0,2.31l3.53,0l1.45,4.56c0.08,0.23 0.23,0.43 0.43,0.56c0.2,0.14 0.43,0.22 0.67,0.21l0.7,0c-1.1,4.16 -1.07,8.54 0.09,12.69l-0.77,0c-0.24,-0.01 -0.48,0.07 -0.68,0.2c-0.19,0.14 -0.34,0.34 -0.42,0.57l-1.46,4.55l-3.54,0l0,2.31l4.37,0c0.25,0 0.49,-0.08 0.69,-0.22c0.19,-0.15 0.34,-0.35 0.41,-0.58l1.46,-4.56l0.77,0c1.93,4.92 5.43,9.08 9.95,11.82l-2.63,3.18l-15.02,0l0,2.31l15.59,0c0.17,0 0.33,-0.04 0.49,-0.11c0.15,-0.08 0.28,-0.18 0.39,-0.32l3.29,-3.92c3.19,1.51 6.68,2.3 10.21,2.3c3.53,0 7.02,-0.79 10.21,-2.3l3.29,3.95c0.1,0.14 0.24,0.24 0.39,0.32c0.16,0.07 0.32,0.11 0.49,0.11l15.59,0l0,-2.31l-15.04,0l-2.61,-3.21c4.54,-2.72 8.06,-6.86 10.01,-11.78l0.77,0l1.46,4.55c0.07,0.24 0.22,0.44 0.41,0.59c0.2,0.14 0.44,0.22 0.69,0.22l4.37,0l0,-2.31l-3.59,0l-1.45,-4.56c-0.08,-0.22 -0.23,-0.42 -0.43,-0.56c-0.2,-0.14 -0.43,-0.21 -0.67,-0.21l-0.79,0c1.16,-4.13 1.19,-8.49 0.09,-12.64l0.68,0c0.24,0 0.48,-0.07 0.67,-0.21c0.2,-0.14 0.35,-0.33 0.43,-0.56l1.46,-4.56l3.52,0l0,-2.31l-4.36,0c-0.24,0 -0.48,0.08 -0.68,0.23c-0.19,0.14 -0.34,0.35 -0.42,0.58l-1.45,4.56l-0.6,0c-1.9,-5 -5.4,-9.22 -9.96,-12.01l2.45,-2.95l15.04,0l0,-2.31l-15.59,0c-0.16,-0.01 -0.32,0.01 -0.48,0.07c-0.15,0.06 -0.29,0.16 -0.4,0.27zm1.54,25.31c0,2.97 -0.88,5.87 -2.53,8.33c-1.64,2.47 -3.98,4.39 -6.72,5.53c-2.74,1.14 -5.76,1.43 -8.66,0.86c-2.91,-0.58 -5.59,-2 -7.69,-4.1c-2.09,-2.09 -3.53,-4.76 -4.11,-7.67c-0.58,-2.9 -0.29,-5.92 0.84,-8.66c1.13,-2.74 3.04,-5.09 5.51,-6.74c2.46,-1.65 5.35,-2.54 8.32,-2.55c3.98,0.01 7.79,1.59 10.6,4.4c2.81,2.81 4.4,6.63 4.4,10.6l0.04,0zm-16.17,-17.26c-3.79,0.25 -7.38,1.74 -10.24,4.24l-3.08,-3.08c3.67,-3.31 8.36,-5.27 13.29,-5.54l0.03,4.38zm-11.89,5.88c-2.5,2.85 -4,6.45 -4.24,10.23l-4.39,0c0.27,-4.94 2.22,-9.64 5.53,-13.31l3.1,3.08zm-4.24,12.54c0.24,3.78 1.74,7.38 4.24,10.23l-3.08,3.08c-3.32,-3.68 -5.27,-8.38 -5.53,-13.33l4.37,0.02zm5.87,11.87c2.85,2.5 6.45,3.99 10.23,4.25l0,4.38c-4.94,-0.26 -9.65,-2.22 -13.32,-5.54l3.09,-3.09zm12.54,4.25c3.79,-0.26 7.39,-1.75 10.24,-4.25l3.08,3.08c-3.67,3.32 -8.37,5.28 -13.32,5.55l0,-4.38zm11.87,-5.89c2.5,-2.85 3.99,-6.45 4.24,-10.23l4.38,0c-0.26,4.94 -2.21,9.65 -5.52,13.33l-3.1,-3.1zm4.24,-12.54c-0.25,-3.78 -1.74,-7.38 -4.24,-10.23l3.08,-3.08c3.32,3.68 5.27,8.38 5.53,13.32l-4.37,-0.01zm-5.87,-11.87c-2.86,-2.5 -6.45,-3.99 -10.24,-4.24l0,-4.38c4.95,0.26 9.65,2.21 13.33,5.53l-3.09,3.09z" fill="#ffffff" id="svg_1"/>
 </g>
</svg>