<?xml version="1.0"?>
<svg width="47" height="32" xmlns="http://www.w3.org/2000/svg" xmlns:svg="http://www.w3.org/2000/svg">
 <g class="layer">
  <title>Layer 1</title>
  <path d="m12.05,6.79l-1.84,0c-0.17,-0.73 -0.6,-1.38 -1.2,-1.81c-0.61,-0.44 -1.36,-0.63 -2.1,-0.55c-0.75,0.08 -1.43,0.44 -1.93,1c-0.5,0.55 -0.78,1.27 -0.78,2.02c0,0.75 0.28,1.47 0.78,2.03c0.5,0.56 1.18,0.91 1.93,0.99c0.74,0.09 1.49,-0.11 2.1,-0.54c0.6,-0.44 1.03,-1.08 1.2,-1.81l1.84,0c0.18,0 0.35,-0.07 0.47,-0.2c0.13,-0.12 0.2,-0.29 0.2,-0.47c0,-0.17 -0.07,-0.34 -0.2,-0.47c-0.12,-0.12 -0.29,-0.19 -0.47,-0.19zm-4.81,2.37c-0.33,0 -0.66,-0.1 -0.94,-0.29c-0.29,-0.19 -0.5,-0.45 -0.63,-0.76c-0.13,-0.32 -0.17,-0.66 -0.1,-0.99c0.07,-0.33 0.23,-0.64 0.47,-0.87c0.24,-0.24 0.54,-0.41 0.87,-0.47c0.33,-0.07 0.67,-0.03 0.99,0.1c0.31,0.13 0.57,0.34 0.76,0.62c0.19,0.29 0.29,0.62 0.29,0.95c0,0.46 -0.18,0.89 -0.5,1.21c-0.32,0.32 -0.76,0.5 -1.21,0.5zm10.65,-1.71c0,0.18 -0.07,0.35 -0.2,0.47c-0.12,0.13 -0.29,0.2 -0.47,0.2l-2.44,0c-0.17,0 -0.34,-0.07 -0.47,-0.2c-0.12,-0.12 -0.19,-0.29 -0.19,-0.47c0,-0.17 0.07,-0.34 0.19,-0.47c0.13,-0.12 0.3,-0.19 0.47,-0.19l2.44,0c0.18,0 0.35,0.07 0.47,0.19c0.13,0.13 0.2,0.3 0.2,0.47zm5.17,0c0,0.09 -0.02,0.18 -0.05,0.26c-0.04,0.08 -0.09,0.15 -0.15,0.21c-0.06,0.07 -0.13,0.12 -0.21,0.15c-0.08,0.03 -0.17,0.05 -0.26,0.05l-2.44,0c-0.17,0 -0.34,-0.07 -0.47,-0.2c-0.12,-0.12 -0.19,-0.29 -0.19,-0.47c0,-0.17 0.07,-0.34 0.19,-0.47c0.13,-0.12 0.3,-0.19 0.47,-0.19l2.44,0c0.09,0 0.18,0.01 0.26,0.05c0.08,0.03 0.15,0.08 0.21,0.14c0.06,0.06 0.11,0.14 0.15,0.22c0.03,0.08 0.05,0.17 0.05,0.25zm8.26,-2.9c0,-0.08 0.02,-0.17 0.05,-0.25c0.04,-0.08 0.09,-0.16 0.15,-0.22c0.06,-0.06 0.13,-0.11 0.22,-0.14c0.08,-0.04 0.16,-0.05 0.25,-0.05l5.97,0c0.09,-0.01 0.18,0.01 0.26,0.04c0.09,0.03 0.16,0.08 0.23,0.14c0.06,0.07 0.11,0.14 0.14,0.22c0.04,0.09 0.06,0.17 0.06,0.26c0,0.09 -0.02,0.18 -0.06,0.26c-0.03,0.08 -0.08,0.16 -0.14,0.22c-0.07,0.06 -0.14,0.11 -0.23,0.14c-0.08,0.04 -0.17,0.05 -0.26,0.05l-5.97,0c-0.09,0 -0.17,-0.02 -0.25,-0.05c-0.09,-0.04 -0.16,-0.08 -0.22,-0.15c-0.06,-0.06 -0.11,-0.13 -0.15,-0.21c-0.03,-0.08 -0.05,-0.17 -0.05,-0.26zm-19.27,19.33l-1.84,0c-0.17,-0.73 -0.6,-1.37 -1.2,-1.81c-0.61,-0.43 -1.36,-0.63 -2.1,-0.54c-0.75,0.08 -1.43,0.43 -1.93,0.99c-0.5,0.56 -0.78,1.28 -0.78,2.03c0,0.75 0.28,1.47 0.78,2.02c0.5,0.56 1.18,0.92 1.93,1c0.74,0.08 1.49,-0.11 2.1,-0.55c0.6,-0.43 1.03,-1.08 1.2,-1.81l1.84,0c0.18,0 0.35,-0.07 0.47,-0.19c0.13,-0.13 0.2,-0.3 0.2,-0.47c0,-0.18 -0.07,-0.35 -0.2,-0.47c-0.12,-0.13 -0.29,-0.2 -0.47,-0.2zm-4.81,2.37c-0.33,0 -0.66,-0.1 -0.95,-0.28c-0.28,-0.19 -0.49,-0.46 -0.62,-0.77c-0.13,-0.31 -0.17,-0.65 -0.1,-0.99c0.07,-0.33 0.23,-0.63 0.47,-0.87c0.24,-0.24 0.54,-0.4 0.87,-0.47c0.33,-0.06 0.67,-0.03 0.99,0.1c0.31,0.13 0.57,0.35 0.76,0.63c0.19,0.28 0.29,0.61 0.29,0.95c0,0.45 -0.18,0.88 -0.5,1.2c-0.32,0.32 -0.76,0.5 -1.21,0.5zm10.65,-1.7c0,0.17 -0.07,0.34 -0.2,0.47c-0.12,0.12 -0.29,0.19 -0.47,0.19l-2.44,0c-0.17,0 -0.34,-0.07 -0.47,-0.19c-0.12,-0.13 -0.19,-0.3 -0.19,-0.47c0,-0.18 0.07,-0.35 0.19,-0.47c0.13,-0.13 0.3,-0.2 0.47,-0.2l2.44,0c0.18,0 0.35,0.07 0.47,0.2c0.13,0.12 0.2,0.29 0.2,0.47zm5.17,0c0,0.17 -0.07,0.34 -0.2,0.47c-0.12,0.12 -0.29,0.19 -0.47,0.19l-2.44,0c-0.17,0 -0.34,-0.07 -0.47,-0.19c-0.12,-0.13 -0.19,-0.3 -0.19,-0.47c0,-0.18 0.07,-0.35 0.19,-0.47c0.13,-0.13 0.3,-0.2 0.47,-0.2l2.44,0c0.09,0 0.18,0.02 0.26,0.05c0.08,0.03 0.15,0.08 0.21,0.15c0.06,0.06 0.11,0.13 0.15,0.21c0.03,0.08 0.05,0.17 0.05,0.26zm15.57,2.9c0,0.17 -0.07,0.34 -0.2,0.47c-0.12,0.12 -0.29,0.19 -0.47,0.19l-5.97,0c-0.09,0.01 -0.18,-0.01 -0.26,-0.04c-0.08,-0.03 -0.16,-0.08 -0.22,-0.15c-0.07,-0.06 -0.12,-0.13 -0.15,-0.21c-0.04,-0.09 -0.05,-0.17 -0.05,-0.26c0,-0.09 0.01,-0.18 0.05,-0.26c0.03,-0.08 0.08,-0.16 0.15,-0.22c0.06,-0.06 0.14,-0.11 0.22,-0.14c0.08,-0.04 0.17,-0.05 0.26,-0.05l5.97,0c0.09,0 0.18,0.02 0.26,0.05c0.08,0.04 0.15,0.08 0.21,0.15c0.07,0.06 0.11,0.13 0.15,0.21c0.03,0.08 0.05,0.17 0.05,0.26zm7.83,-17.87c-0.8,-0.15 -1.55,-0.49 -2.18,-1c-0.63,-0.51 -1.13,-1.17 -1.45,-1.91l0,-3.23c0,-0.91 -0.36,-1.79 -1,-2.43c-0.65,-0.65 -1.52,-1.01 -2.43,-1.01l-35.96,0c-0.91,0 -1.79,0.36 -2.43,1.01c-0.65,0.64 -1.01,1.52 -1.01,2.43l0,8.03c0,0.91 0.36,1.78 1.01,2.43c0.64,0.64 1.52,1 2.43,1.01l1.83,0l0,2.19l-1.83,0c-0.91,0 -1.79,0.36 -2.43,1.01c-0.65,0.64 -1.01,1.51 -1.01,2.43l0,8.02c0,0.91 0.36,1.79 1.01,2.43c0.64,0.65 1.52,1.01 2.43,1.01l35.96,0c0.91,0 1.78,-0.36 2.43,-1.01c0.64,-0.64 1,-1.52 1.01,-2.43l0,-4.13c1.92,-1.02 3.63,-2.5 4.15,-5.11c0.01,-0.05 0.01,-0.09 0.01,-0.13l0,-8.96c0,-0.15 -0.05,-0.3 -0.15,-0.42c-0.1,-0.12 -0.24,-0.2 -0.39,-0.23zm-45.13,1.89l0,-8.03c0,-0.56 0.22,-1.09 0.62,-1.49c0.39,-0.39 0.93,-0.62 1.49,-0.62l35.96,0c0.56,0 1.09,0.23 1.49,0.62c0.39,0.4 0.61,0.93 0.61,1.49l0,2.7l-5,0c-0.13,0 -0.26,0.04 -0.37,0.11c-0.11,0.08 -0.19,0.18 -0.24,0.31c-0.04,0.07 -0.07,0.15 -0.11,0.22l-3.79,0c-0.18,0 -0.35,0.07 -0.47,0.2c-0.13,0.12 -0.2,0.29 -0.2,0.47c0,0.18 0.07,0.35 0.2,0.47c0.12,0.13 0.29,0.2 0.47,0.2l2.9,0c-0.71,0.76 -1.65,1.27 -2.67,1.46c-0.16,0.03 -0.29,0.11 -0.39,0.23c-0.1,0.12 -0.16,0.27 -0.16,0.43l0,3.33l-28.23,0c-0.56,0 -1.1,-0.22 -1.49,-0.61c-0.4,-0.4 -0.62,-0.94 -0.62,-1.49zm30.34,3.44l0,2.19l-19.9,0l0,-2.2l19.9,0.01zm-25.07,0l3.83,0l0,2.19l-3.83,0l0,-2.19zm34.9,13.65c0,0.56 -0.22,1.09 -0.61,1.49c-0.4,0.39 -0.93,0.62 -1.49,0.62l-35.96,0c-0.56,0 -1.1,-0.23 -1.49,-0.62c-0.39,-0.4 -0.62,-0.93 -0.62,-1.49l0,-8.03c0,-0.55 0.23,-1.09 0.62,-1.48c0.39,-0.4 0.93,-0.62 1.49,-0.62l28.23,0l0,0.76c0,0.04 0.01,0.08 0.02,0.13c0.11,0.57 0.29,1.13 0.55,1.66l-0.25,0c-0.18,0 -0.35,0.07 -0.47,0.19c-0.13,0.13 -0.2,0.3 -0.2,0.48c0,0.17 0.07,0.34 0.2,0.47c0.12,0.12 0.29,0.19 0.47,0.19l1.11,0c0.52,0.61 1.13,1.14 1.8,1.57l-2.91,0c-0.09,0 -0.18,0.01 -0.26,0.05c-0.08,0.03 -0.16,0.08 -0.22,0.14c-0.07,0.06 -0.12,0.13 -0.15,0.22c-0.04,0.08 -0.05,0.17 -0.05,0.26c0,0.09 0.01,0.17 0.05,0.26c0.03,0.08 0.08,0.15 0.15,0.21c0.06,0.07 0.14,0.11 0.22,0.15c0.08,0.03 0.17,0.04 0.26,0.04l5.55,0c0.48,0.2 0.97,0.38 1.43,0.56l0.13,0.05c0.15,0.06 0.32,0.06 0.47,0l0.13,-0.05c0.58,-0.22 1.19,-0.45 1.8,-0.71l0,3.5zm4.17,-9.44c-0.67,3.2 -3.54,4.31 -6.33,5.36c-2.8,-1.05 -5.66,-2.17 -6.34,-5.36l0,-8.36c0.86,-0.23 1.65,-0.65 2.33,-1.22c0.67,-0.57 1.22,-1.27 1.61,-2.07l4.79,0c0.39,0.8 0.94,1.5 1.62,2.07c0.67,0.57 1.47,0.99 2.32,1.22l0,8.36zm-7.15,-1.79l4.49,-4.49c0.12,-0.12 0.29,-0.19 0.47,-0.19c0.17,0.01 0.34,0.08 0.46,0.2c0.12,0.12 0.19,0.29 0.19,0.46c0.01,0.18 -0.06,0.35 -0.18,0.47l-4.96,4.96c-0.12,0.13 -0.29,0.2 -0.47,0.2c-0.17,0 -0.34,-0.07 -0.47,-0.19l-2.69,-2.66c-0.12,-0.12 -0.19,-0.29 -0.19,-0.46c0,-0.18 0.07,-0.35 0.19,-0.47c0.12,-0.12 0.29,-0.2 0.46,-0.2c0.18,0 0.35,0.06 0.47,0.18l2.23,2.19z" fill="#1f1f7f" id="svg_1"/>
 </g>
</svg>