<?xml version="1.0"?>
<svg width="37" height="54" xmlns="http://www.w3.org/2000/svg" xmlns:svg="http://www.w3.org/2000/svg">
 <g class="layer">
  <title>Layer 1</title>
  <path d="m29.94,20.33l0,-8.33c0,-6.33 -5.16,-11.5 -11.44,-11.5c-6.33,0 -11.5,5.17 -11.5,11.5l0,8.33c-4.28,3.39 -7,8.61 -7,14.45c0,10.16 8.28,18.5 18.5,18.5c10.17,0 18.5,-8.28 18.5,-18.5c-0.06,-5.84 -2.83,-11.06 -7.06,-14.45zm-20.77,-8.33c0,-5.11 4.16,-9.33 9.27,-9.33c5.12,0 9.28,4.16 9.28,9.33l0,6.83c-1.16,-0.66 -2.44,-1.27 -3.78,-1.66l0,-5.11c0,-3.06 -2.5,-5.5 -5.5,-5.5c-3.05,0 -5.5,2.44 -5.5,5.5l0,5.11c-1.33,0.44 -2.61,1 -3.77,1.72l0,-6.89zm12.61,4.61c-1.11,-0.22 -2.22,-0.33 -3.34,-0.33c-1.11,0 -2.22,0.11 -3.33,0.33l0,-4.55c0,-1.84 1.5,-3.34 3.33,-3.34c1.84,0 3.34,1.5 3.34,3.34l0,4.55zm-3.34,34.5c-9,0 -16.33,-7.33 -16.33,-16.33c0,-9 7.33,-16.28 16.33,-16.28c9,0 16.34,7.33 16.34,16.33c0,9 -7.34,16.28 -16.34,16.28z" fill="#f9f9ff" id="svg_1"/>
  <path d="m18.44,23c-6.5,0 -11.77,5.28 -11.77,11.78c0,6.5 5.27,11.78 11.77,11.78c6.5,0 11.78,-5.28 11.78,-11.78c0,-6.5 -5.28,-11.78 -11.78,-11.78zm0,21.39c-5.27,0 -9.61,-4.28 -9.61,-9.61c0,-5.34 4.34,-9.56 9.61,-9.56c5.28,0 9.62,4.28 9.62,9.61c0,5.34 -4.34,9.56 -9.62,9.56z" fill="#ffffff" id="svg_2"/>
  <path d="m14.39,31.78l-1.83,0c-0.39,0 -0.73,0.33 -0.73,0.72l0,4.56c0,0.38 0.34,0.72 0.73,0.72l1.83,0c0.39,0 0.72,-0.34 0.72,-0.72l0,-4.56c0,-0.39 -0.33,-0.72 -0.72,-0.72z" fill="#ffffff" id="svg_3"/>
  <path d="m19.39,31.78l-1.83,0c-0.39,0 -0.73,0.33 -0.73,0.72l0,4.56c0,0.38 0.34,0.72 0.73,0.72l1.83,0c0.39,0 0.72,-0.34 0.72,-0.72l0,-4.56c0,-0.39 -0.33,-0.72 -0.72,-0.72z" fill="#ffffff" id="svg_4"/>
  <path d="m24.33,31.78l-1.83,0c-0.39,0 -0.72,0.33 -0.72,0.72l0,4.56c0,0.38 0.33,0.72 0.72,0.72l1.83,0c0.39,0 0.73,-0.34 0.73,-0.72l0,-4.56c0,-0.39 -0.34,-0.72 -0.73,-0.72z" fill="#ffffff" id="svg_5"/>
 </g>
</svg>