<svg width="37" height="54" viewBox="0 0 37 54" fill="none" xmlns="http://www.w3.org/2000/svg">
<path d="M29.9444 20.3333V12C29.9444 5.66667 24.7778 0.5 18.5 0.5C12.1667 0.5 7 5.66667 7 12V20.3333C2.72222 23.7222 0 28.9444 0 34.7778C0 44.9444 8.27778 53.2778 18.5 53.2778C28.6667 53.2778 37 45 37 34.7778C36.9444 28.9444 34.1667 23.7222 29.9444 20.3333ZM9.16667 12C9.16667 6.88889 13.3333 2.66667 18.4444 2.66667C23.5556 2.66667 27.7222 6.83333 27.7222 12V18.8333C26.5556 18.1667 25.2778 17.5556 23.9444 17.1667V12.0556C23.9444 9 21.4444 6.55555 18.4444 6.55555C15.3889 6.55555 12.9444 9 12.9444 12.0556V17.1667C11.6111 17.6111 10.3333 18.1667 9.16667 18.8889V12ZM21.7778 16.6111C20.6667 16.3889 19.5556 16.2778 18.4444 16.2778C17.3333 16.2778 16.2222 16.3889 15.1111 16.6111V12.0556C15.1111 10.2222 16.6111 8.72222 18.4444 8.72222C20.2778 8.72222 21.7778 10.2222 21.7778 12.0556V16.6111ZM18.4444 51.1111C9.44444 51.1111 2.11111 43.7778 2.11111 34.7778C2.11111 25.7778 9.44444 18.5 18.4444 18.5C27.4444 18.5 34.7778 25.8333 34.7778 34.8333C34.7778 43.8333 27.4444 51.1111 18.4444 51.1111Z" fill="#1F1F7F"/>
<path d="M18.4444 23C11.9444 23 6.66667 28.2778 6.66667 34.7778C6.66667 41.2778 11.9444 46.5556 18.4444 46.5556C24.9444 46.5556 30.2222 41.2778 30.2222 34.7778C30.2222 28.2778 24.9444 23 18.4444 23ZM18.4444 44.3889C13.1667 44.3889 8.83334 40.1111 8.83334 34.7778C8.83334 29.4444 13.1667 25.2222 18.4444 25.2222C23.7222 25.2222 28.0556 29.5 28.0556 34.8333C28.0556 40.1667 23.7222 44.3889 18.4444 44.3889Z" fill="#1F1F7F"/>
<path d="M14.3889 31.7778H12.5556C12.1667 31.7778 11.8333 32.1112 11.8333 32.5001V37.0556C11.8333 37.4445 12.1667 37.7778 12.5556 37.7778H14.3889C14.7778 37.7778 15.1111 37.4445 15.1111 37.0556V32.5001C15.1111 32.1112 14.7778 31.7778 14.3889 31.7778Z" fill="#1F1F7F"/>
<path d="M19.3889 31.7778H17.5556C17.1667 31.7778 16.8333 32.1112 16.8333 32.5001V37.0556C16.8333 37.4445 17.1667 37.7778 17.5556 37.7778H19.3889C19.7778 37.7778 20.1111 37.4445 20.1111 37.0556V32.5001C20.1111 32.1112 19.7778 31.7778 19.3889 31.7778Z" fill="#1F1F7F"/>
<path d="M24.3333 31.7778H22.5C22.1111 31.7778 21.7778 32.1112 21.7778 32.5001V37.0556C21.7778 37.4445 22.1111 37.7778 22.5 37.7778H24.3333C24.7222 37.7778 25.0556 37.4445 25.0556 37.0556V32.5001C25.0556 32.1112 24.7222 31.7778 24.3333 31.7778Z" fill="#1F1F7F"/>
</svg>
